{
  "accessors": [
    {
      "bufferView": 2,
      "componentType": 5126,
      "count": 70,
      "max": [
        1.3057229518890381,
        -0.66902899742126465,
        5.2994790077209473
      ],
      "min": [
        -2.8062400817871094,
        -2.8452720642089844,
        2.8758659362792969
      ],
      "type": "VEC3"
    },
    {
      "bufferView": 2,
      "byteOffset": 840,
      "componentType": 5126,
      "count": 70,
      "max": [
        0.9971964955329895,
        0.69642108678817749,
        0.97503334283828735
      ],
      "min": [
        -0.98750364780426025,
        -0.99843835830688477,
        -0.90686923265457153
      ],
      "type": "VEC3"
    },
    {
      "bufferView": 3,
      "componentType": 5126,
      "count": 70,
      "max": [
        0.99538111686706543,
        0.97825783491134644,
        0.8082805871963501,
        1
      ],
      "min": [
        -0.99841916561126709,
        -0.80459213256835938,
        -0.67078566551208496,
        -1
      ],
      "type": "VEC4"
    },
    {
      "bufferView": 0,
      "componentType": 5125,
      "count": 288,
      "max": [
        69
      ],
      "min": [
        0
      ],
      "type": "SCALAR"
    },
    {
      "bufferView": 2,
      "byteOffset": 1680,
      "componentType": 5126,
      "count": 422,
      "max": [
        1.155953049659729,
        -0.81549197435379028,
        4.9146480560302734
      ],
      "min": [
        -2.4632270336151123,
        -2.9470009803771973,
        2.906296968460083
      ],
      "type": "VEC3"
    },
    {
      "bufferView": 2,
      "byteOffset": 6744,
      "componentType": 5126,
      "count": 422,
      "max": [
        0.99995309114456177,
        0.61899709701538086,
        0.99797910451889038
      ],
      "min": [
        -0.98321640491485596,
        -0.99972623586654663,
        -0.99934512376785278
      ],
      "type": "VEC3"
    },
    {
      "bufferView": 3,
      "byteOffset": 1120,
      "componentType": 5126,
      "count": 422,
      "max": [
        0.99998164176940918,
        0.97986900806427002,
        0.58049100637435913,
        1
      ],
      "min": [
        -0.95389145612716675,
        -0.96274256706237793,
        -0.52624332904815674,
        -1
      ],
      "type": "VEC4"
    },
    {
      "bufferView": 1,
      "componentType": 5126,
      "count": 422,
      "max": [
        0.80331802368164062,
        0.86472398042678833
      ],
      "min": [
        0.17949199676513672,
        0.17268000543117523
      ],
      "type": "VEC2"
    },
    {
      "bufferView": 0,
      "byteOffset": 1152,
      "componentType": 5125,
      "count": 2280,
      "max": [
        421
      ],
      "min": [
        0
      ],
      "type": "SCALAR"
    },
    {
      "bufferView": 2,
      "byteOffset": 11808,
      "componentType": 5126,
      "count": 280,
      "max": [
        5.6010518074035645,
        2.3069250583648682,
        -8.195887565612793
      ],
      "min": [
        -0.62272602319717407,
        0.74568402767181396,
        -10.061158180236816
      ],
      "type": "VEC3"
    },
    {
      "bufferView": 2,
      "byteOffset": 15168,
      "componentType": 5126,
      "count": 280,
      "max": [
        0.99924945831298828,
        0.44915011525154114,
        0.96640026569366455
      ],
      "min": [
        -0.98843550682067871,
        -0.99965614080429077,
        -0.92838424444198608
      ],
      "type": "VEC3"
    },
    {
      "bufferView": 3,
      "byteOffset": 7872,
      "componentType": 5126,
      "count": 280,
      "max": [
        0.99649041891098022,
        0.99890023469924927,
        0.82936710119247437,
        1
      ],
      "min": [
        -0.39540520310401917,
        -0.99994379281997681,
        -0.57114911079406738,
        1
      ],
      "type": "VEC4"
    },
    {
      "bufferView": 0,
      "byteOffset": 10272,
      "componentType": 5125,
      "count": 1200,
      "max": [
        279
      ],
      "min": [
        0
      ],
      "type": "SCALAR"
    },
    {
      "bufferView": 2,
      "byteOffset": 18528,
      "componentType": 5126,
      "count": 238,
      "max": [
        0.45161700248718262,
        -1.9592490196228027,
        5.3417830467224121
      ],
      "min": [
        -1.6158629655838013,
        -2.951591968536377,
        4.2430191040039062
      ],
      "type": "VEC3"
    },
    {
      "bufferView": 2,
      "byteOffset": 21384,
      "componentType": 5126,
      "count": 238,
      "max": [
        0.99541562795639038,
        0.98681223392486572,
        0.92700678110122681
      ],
      "min": [
        -0.99492013454437256,
        -0.9962342381477356,
        -0.89231610298156738
      ],
      "type": "VEC3"
    },
    {
      "bufferView": 3,
      "byteOffset": 12352,
      "componentType": 5126,
      "count": 238,
      "max": [
        0.98740780353546143,
        0.99657106399536133,
        0.99473685026168823,
        1
      ],
      "min": [
        -0.99703872203826904,
        -0.99873054027557373,
        -0.99473685026168823,
        1
      ],
      "type": "VEC4"
    },
    {
      "bufferView": 0,
      "byteOffset": 15072,
      "componentType": 5125,
      "count": 1080,
      "max": [
        237
      ],
      "min": [
        0
      ],
      "type": "SCALAR"
    },
    {
      "bufferView": 2,
      "byteOffset": 24240,
      "componentType": 5126,
      "count": 878,
      "max": [
        4.8020510673522949,
        4.841343879699707,
        -6.3431172370910645
      ],
      "min": [
        -1.1539050340652466,
        2.1682670116424561,
        -8.130366325378418
      ],
      "type": "VEC3"
    },
    {
      "bufferView": 2,
      "byteOffset": 34776,
      "componentType": 5126,
      "count": 878,
      "max": [
        0.99811536073684692,
        0.99410724639892578,
        0.94098448753356934
      ],
      "min": [
        -0.98772913217544556,
        -0.99664759635925293,
        -0.9757346510887146
      ],
      "type": "VEC3"
    },
    {
      "bufferView": 3,
      "byteOffset": 16160,
      "componentType": 5126,
      "count": 878,
      "max": [
        0.96742618083953857,
        0.93989330530166626,
        0.77448451519012451,
        -1
      ],
      "min": [
        -0.97728580236434937,
        -0.97262489795684814,
        -0.7697637677192688,
        -1
      ],
      "type": "VEC4"
    },
    {
      "bufferView": 0,
      "byteOffset": 19392,
      "componentType": 5125,
      "count": 4560,
      "max": [
        877
      ],
      "min": [
        0
      ],
      "type": "SCALAR"
    },
    {
      "bufferView": 2,
      "byteOffset": 45312,
      "componentType": 5126,
      "count": 2036,
      "max": [
        5.7599620819091797,
        5.9997429847717285,
        7.2358360290527344
      ],
      "min": [
        -4.4430122375488281,
        -1.7886439561843872,
        -10.194151878356934
      ],
      "type": "VEC3"
    },
    {
      "bufferView": 2,
      "byteOffset": 69744,
      "componentType": 5126,
      "count": 2036,
      "max": [
        0.99981361627578735,
        0.99544352293014526,
        0.99993276596069336
      ],
      "min": [
        -0.99921387434005737,
        -0.99875354766845703,
        -0.99869602918624878
      ],
      "type": "VEC3"
    },
    {
      "bufferView": 3,
      "byteOffset": 30208,
      "componentType": 5126,
      "count": 2036,
      "max": [
        0.98625481128692627,
        0.99770796298980713,
        0.98873448371887207,
        1
      ],
      "min": [
        -0.99467867612838745,
        -0.99017888307571411,
        -0.95663934946060181,
        -1
      ],
      "type": "VEC4"
    },
    {
      "bufferView": 0,
      "byteOffset": 37632,
      "componentType": 5125,
      "count": 10992,
      "max": [
        2035
      ],
      "min": [
        0
      ],
      "type": "SCALAR"
    },
    {
      "bufferView": 2,
      "byteOffset": 94176,
      "componentType": 5126,
      "count": 4596,
      "max": [
        6.0916128158569336,
        8.2513113021850586,
        7.0216050148010254
      ],
      "min": [
        -11.605555534362793,
        -3.9080159664154053,
        -5.0095119476318359
      ],
      "type": "VEC3"
    },
    {
      "bufferView": 2,
      "byteOffset": 149328,
      "componentType": 5126,
      "count": 4596,
      "max": [
        0.99764209985733032,
        0.99973499774932861,
        0.99963438510894775
      ],
      "min": [
        -0.99837237596511841,
        -0.9999767541885376,
        -0.9999733567237854
      ],
      "type": "VEC3"
    },
    {
      "bufferView": 3,
      "byteOffset": 62784,
      "componentType": 5126,
      "count": 4596,
      "max": [
        0.99972927570343018,
        0.99992901086807251,
        0.99959427118301392,
        1
      ],
      "min": [
        -0.99981969594955444,
        -0.99977254867553711,
        -0.99875009059906006,
        -1
      ],
      "type": "VEC4"
    },
    {
      "bufferView": 0,
      "byteOffset": 81600,
      "componentType": 5125,
      "count": 24660,
      "max": [
        4595
      ],
      "min": [
        0
      ],
      "type": "SCALAR"
    }
  ],
  "asset": {
    "extras": {
      "author": "isana (https://sketchfab.com/isana)",
      "license": "CC-BY-4.0 (http://creativecommons.org/licenses/by/4.0/)",
      "source": "https://sketchfab.com/models/8210ff9835604d78899671916b3366c9",
      "title": "MEW"
    },
    "generator": "Sketchfab-3.18.6",
    "version": "2.0"
  },
  "bufferViews": [
    {
      "buffer": 0,
      "byteLength": 180240,
      "byteOffset": 0,
      "name": "floatBufferViews",
      "target": 34963
    },
    {
      "buffer": 0,
      "byteLength": 3376,
      "byteOffset": 180240,
      "byteStride": 8,
      "name": "floatBufferViews",
      "target": 34962
    },
    {
      "buffer": 0,
      "byteLength": 204480,
      "byteOffset": 183616,
      "byteStride": 12,
      "name": "floatBufferViews",
      "target": 34962
    },
    {
      "buffer": 0,
      "byteLength": 136320,
      "byteOffset": 388096,
      "byteStride": 16,
      "name": "floatBufferViews",
      "target": 34962
    }
  ],
  "buffers": [
    {
      "byteLength": 524416,
      "uri": "scene.bin"
    }
  ],
  "images": [
    {
      "uri": "textures/aiStandardSurface1SG_baseColor.png"
    }
  ],
  "materials": [
    {
      "doubleSided": true,
      "emissiveFactor": [
        0,
        0,
        0
      ],
      "name": "aiStandardSurface1SG",
      "pbrMetallicRoughness": {
        "baseColorFactor": [
          1,
          1,
          1,
          1
        ],
        "baseColorTexture": {
          "index": 0,
          "texCoord": 0
        },
        "metallicFactor": 0,
        "roughnessFactor": 1
      }
    },
    {
      "doubleSided": true,
      "emissiveFactor": [
        0,
        0,
        0
      ],
      "name": "aiStandardSurface5SG",
      "pbrMetallicRoughness": {
        "baseColorFactor": [
          0.11075758500000001,
          0.11075758500000001,
          0.11075758500000001,
          1
        ],
        "metallicFactor": 0,
        "roughnessFactor": 1
      }
    },
    {
      "doubleSided": true,
      "emissiveFactor": [
        0,
        0,
        0
      ],
      "name": "aiStandardSurface6SG",
      "pbrMetallicRoughness": {
        "baseColorFactor": [
          0.16530303960000001,
          0.16530303960000001,
          0.16530303960000001,
          1
        ],
        "metallicFactor": 0,
        "roughnessFactor": 1
      }
    },
    {
      "doubleSided": true,
      "emissiveFactor": [
        0,
        0,
        0
      ],
      "name": "aiStandardSurface7SG",
      "pbrMetallicRoughness": {
        "baseColorFactor": [
          0.96414511079999998,
          0.40561767440000002,
          0.19129563699999999,
          1
        ],
        "metallicFactor": 0,
        "roughnessFactor": 0.98621211200000003
      }
    },
    {
      "doubleSided": true,
      "emissiveFactor": [
        0,
        0,
        0
      ],
      "name": "lambert2SG",
      "pbrMetallicRoughness": {
        "baseColorFactor": [
          1,
          1,
          1,
          1
        ],
        "metallicFactor": 0,
        "roughnessFactor": 1
      }
    },
    {
      "doubleSided": true,
      "emissiveFactor": [
        0,
        0,
        0
      ],
      "name": "toon_shaderBlueSG",
      "pbrMetallicRoughness": {
        "baseColorFactor": [
          0.53073319860000001,
          0.35579570249999998,
          0.53571417460000004,
          1
        ],
        "metallicFactor": 0,
        "roughnessFactor": 0.73166665739999992
      }
    }
  ],
  "meshes": [
    {
      "primitives": [
        {
          "attributes": {
            "NORMAL": 1,
            "POSITION": 0,
            "TANGENT": 2
          },
          "indices": 3,
          "material": 4,
          "mode": 4
        }
      ]
    },
    {
      "primitives": [
        {
          "attributes": {
            "NORMAL": 5,
            "POSITION": 4,
            "TANGENT": 6,
            "TEXCOORD_0": 7
          },
          "indices": 8,
          "material": 0,
          "mode": 4
        }
      ]
    },
    {
      "primitives": [
        {
          "attributes": {
            "NORMAL": 10,
            "POSITION": 9,
            "TANGENT": 11
          },
          "indices": 12,
          "material": 1,
          "mode": 4
        }
      ]
    },
    {
      "primitives": [
        {
          "attributes": {
            "NORMAL": 14,
            "POSITION": 13,
            "TANGENT": 15
          },
          "indices": 16,
          "material": 2,
          "mode": 4
        }
      ]
    },
    {
      "primitives": [
        {
          "attributes": {
            "NORMAL": 18,
            "POSITION": 17,
            "TANGENT": 19
          },
          "indices": 20,
          "material": 3,
          "mode": 4
        }
      ]
    },
    {
      "primitives": [
        {
          "attributes": {
            "NORMAL": 22,
            "POSITION": 21,
            "TANGENT": 23
          },
          "indices": 24,
          "material": 5,
          "mode": 4
        }
      ]
    },
    {
      "primitives": [
        {
          "attributes": {
            "NORMAL": 26,
            "POSITION": 25,
            "TANGENT": 27
          },
          "indices": 28,
          "material": 5,
          "mode": 4
        }
      ]
    }
  ],
  "nodes": [
    {
      "children": [
        1
      ],
      "name": "RootNode (gltf orientation matrix)",
      "rotation": [
        -0.70710678118654746,
        -0,
        -0,
        0.70710678118654757
      ]
    },
    {
      "children": [
        2
      ],
      "name": "RootNode (model correction matrix)"
    },
    {
      "children": [
        3,
        4,
        5,
        6,
        7,
        8,
        9
      ],
      "name": "MYU.obj.cleaner.materialmerger.gles"
    },
    {
      "mesh": 0,
      "name": ""
    },
    {
      "mesh": 1,
      "name": ""
    },
    {
      "mesh": 2,
      "name": ""
    },
    {
      "mesh": 3,
      "name": ""
    },
    {
      "mesh": 4,
      "name": ""
    },
    {
      "mesh": 5,
      "name": ""
    },
    {
      "mesh": 6,
      "name": ""
    }
  ],
  "samplers": [
    {
      "magFilter": 9729,
      "minFilter": 9987,
      "wrapS": 10497,
      "wrapT": 10497
    }
  ],
  "scene": 0,
  "scenes": [
    {
      "name": "OSG_Scene",
      "nodes": [
        0
      ]
    }
  ],
  "textures": [
    {
      "sampler": 0,
      "source": 0
    }
  ]
}

