<?xml version="1.0" encoding="UTF-8" standalone="no"?>
<!DOCTYPE svg PUBLIC "-//W3C//DTD SVG 1.1//EN" "http://www.w3.org/Graphics/SVG/1.1/DTD/svg11.dtd">
<svg xmlns="http://www.w3.org/2000/svg" version="1.1" viewBox="0 0 913 1148" width="913.0pt" height="1148.0pt">
<path width="10" d="M 155.78 0.00 L 171.28 0.00 C 187.53 2.50 202.72 4.90 217.22 13.25 C 221.91 16.00 224.74 20.67 227.14 25.40 C 229.78 30.90 231.99 36.62 234.12 42.34 C 237.52 51.49 239.77 60.30 244.64 68.87 C 246.17 71.50 248.05 74.76 250.75 76.33 C 253.75 77.13 257.16 75.98 260.01 75.04 C 283.54 66.32 306.22 55.87 329.41 46.42 C 348.90 38.58 368.61 31.74 389.15 27.19 C 401.28 24.64 413.56 22.77 425.90 21.64 C 431.97 21.50 437.93 20.44 444.00 20.44 C 460.33 20.26 476.66 20.31 493.00 20.33 C 498.81 20.39 504.35 20.19 510.08 20.93 C 515.40 21.70 520.72 21.24 526.05 21.89 C 544.00 24.07 561.85 27.38 579.11 32.89 C 590.18 36.08 600.91 40.20 611.66 44.33 C 628.26 50.70 643.96 58.37 660.29 65.32 C 667.46 68.64 674.51 72.19 681.86 75.12 C 687.17 77.18 692.45 80.04 698.02 81.25 C 700.62 80.36 701.60 77.93 702.65 75.62 C 705.69 68.23 706.83 59.89 709.23 52.22 C 712.24 42.46 716.51 32.67 722.66 24.47 C 730.13 15.65 740.11 8.61 751.21 5.18 C 758.21 2.88 765.65 1.56 772.96 0.71 C 786.21 0.12 798.75 0.08 811.41 4.61 C 820.64 8.19 828.72 14.43 833.19 23.42 C 838.53 34.14 841.70 46.08 843.05 57.96 C 844.76 75.91 842.35 93.85 837.08 111.04 C 832.86 125.64 826.13 138.30 820.28 152.28 C 818.43 156.63 816.20 161.27 815.58 165.96 C 821.07 164.96 825.29 161.94 831.01 162.61 C 841.04 163.69 851.16 167.92 860.24 172.17 C 870.86 177.16 880.55 183.91 889.20 191.81 C 895.92 198.03 901.03 205.46 905.72 213.27 C 908.96 218.70 911.43 224.57 913.00 230.71 L 913.00 252.26 C 907.70 271.84 901.06 291.98 887.61 307.61 C 881.70 314.00 874.97 320.68 867.06 324.51 C 857.35 329.24 846.90 332.05 836.19 333.29 C 827.51 334.46 818.52 336.03 810.39 339.39 C 808.25 340.61 804.73 341.79 805.42 344.89 C 805.82 348.27 807.84 351.59 809.40 354.58 C 817.91 369.69 827.75 384.11 837.71 398.30 C 849.26 414.27 860.22 430.67 870.52 447.49 C 880.00 462.99 890.48 479.74 895.75 497.18 C 904.22 523.11 907.72 549.81 908.75 576.98 C 910.28 591.56 909.00 605.57 908.14 620.10 C 905.54 652.24 899.26 686.85 882.60 714.93 C 872.56 731.93 861.68 748.51 850.55 764.82 C 836.38 784.93 822.30 804.21 810.45 825.89 C 808.75 829.28 806.51 833.17 806.32 837.02 C 807.06 839.45 810.54 841.00 812.75 841.87 C 819.99 844.33 828.43 844.54 835.99 844.60 C 847.31 845.40 858.06 846.80 868.23 852.17 C 874.90 855.50 880.88 859.93 885.11 866.15 C 889.09 871.13 893.57 875.62 896.92 881.09 C 905.00 893.60 910.25 908.23 913.00 922.82 L 913.00 942.36 C 911.28 950.98 909.12 959.23 905.12 967.10 C 900.78 975.51 895.75 983.30 888.80 989.80 C 881.35 996.83 873.17 1003.02 863.93 1007.53 C 851.59 1014.08 837.41 1017.30 826.56 1026.48 C 819.76 1032.06 814.69 1039.44 812.27 1047.92 C 810.31 1054.76 809.17 1061.82 809.30 1068.95 C 809.50 1085.57 806.42 1102.11 796.67 1115.90 C 790.25 1125.33 780.57 1132.68 769.64 1136.06 C 762.45 1138.35 755.15 1140.71 747.70 1142.05 C 743.89 1142.74 739.57 1141.22 735.85 1140.35 C 728.94 1138.36 721.81 1136.86 715.09 1134.31 C 702.67 1129.22 691.95 1119.89 684.55 1108.74 C 678.73 1100.10 673.86 1090.74 671.51 1080.53 C 670.12 1075.22 669.42 1068.99 666.77 1064.17 C 664.47 1060.09 659.59 1058.76 655.26 1060.11 C 642.51 1063.48 630.62 1072.23 618.56 1077.56 C 607.56 1082.39 596.37 1086.83 585.18 1091.19 C 566.11 1098.34 546.51 1106.09 526.70 1110.77 C 512.48 1114.34 498.35 1115.93 483.80 1117.27 C 478.25 1117.65 472.55 1117.32 467.00 1117.79 C 458.13 1118.85 448.95 1118.33 440.00 1118.45 C 431.70 1118.35 423.17 1118.81 414.97 1117.81 C 391.39 1116.95 367.84 1113.73 344.93 1108.06 C 315.88 1100.89 288.53 1090.05 261.41 1077.57 C 249.97 1072.36 239.14 1066.87 227.18 1062.75 C 222.34 1061.15 217.17 1059.76 212.06 1060.80 C 208.38 1061.82 206.17 1064.40 205.62 1068.15 C 204.65 1075.31 204.68 1082.25 202.12 1089.13 C 197.83 1101.20 191.00 1112.82 181.76 1121.77 C 175.50 1127.94 167.63 1131.14 159.20 1133.14 C 153.11 1134.48 147.19 1135.65 140.94 1135.59 C 133.57 1135.56 126.15 1135.86 118.80 1135.34 C 110.48 1134.30 101.63 1132.68 94.05 1128.95 C 84.75 1124.07 78.06 1114.45 74.02 1104.98 C 67.52 1089.83 66.77 1074.19 67.84 1057.95 C 69.39 1042.47 73.99 1026.94 79.36 1012.37 C 81.67 1006.10 83.70 1000.14 87.72 994.70 C 90.67 990.67 93.50 987.12 93.61 981.85 C 93.60 978.93 94.13 975.48 91.62 973.38 C 88.08 973.41 84.58 975.02 81.04 975.40 C 75.42 976.05 69.75 974.35 64.48 972.53 C 49.19 966.92 35.16 957.85 23.57 946.43 C 13.09 935.18 4.30 920.85 1.43 905.60 C 0.85 902.85 0.38 900.09 0.00 897.31 L 0.00 893.51 C 2.52 870.89 10.33 847.47 24.66 829.52 C 29.30 824.02 34.68 818.95 40.75 815.06 C 51.45 808.57 63.41 804.54 76.02 804.62 C 83.19 804.68 89.84 804.80 96.69 802.25 C 99.32 801.21 102.21 799.51 103.42 796.83 C 104.25 792.70 104.03 788.10 102.41 784.17 C 100.00 778.20 96.60 772.53 93.09 767.14 C 88.71 760.53 84.24 754.01 79.47 747.66 C 67.24 731.70 56.30 714.71 45.69 697.64 C 36.01 680.11 26.02 663.16 18.49 644.54 C 11.62 628.84 6.44 612.70 4.66 595.59 C 4.55 589.30 3.46 583.12 3.48 576.84 C 3.33 555.92 3.29 534.99 3.48 514.07 C 3.46 507.90 4.48 501.84 4.67 495.68 C 5.90 483.89 8.76 472.22 12.60 461.02 C 19.38 442.48 28.88 424.74 39.31 408.01 C 50.85 388.89 63.32 370.37 76.59 352.41 C 82.35 344.44 88.14 336.43 93.47 328.18 C 96.65 323.23 100.12 318.15 102.39 312.72 C 104.11 308.79 104.27 304.16 103.49 299.99 C 102.28 297.68 99.03 296.42 96.67 295.67 C 90.71 293.77 85.09 294.51 78.96 294.26 C 69.81 293.66 60.94 292.59 52.39 289.08 C 45.60 286.23 38.88 282.47 33.39 277.52 C 20.81 266.04 11.10 251.56 5.54 235.44 C 3.06 227.87 1.45 219.98 0.00 212.16 L 0.00 196.66 C 2.11 185.83 4.29 175.54 9.81 165.85 C 13.12 159.69 17.72 154.54 22.85 149.85 C 32.11 141.50 42.86 134.58 54.00 129.02 C 64.97 123.78 75.97 118.76 86.35 112.37 C 89.92 110.10 93.96 107.79 95.53 103.61 C 97.61 98.22 98.43 92.21 99.46 86.55 C 101.32 76.11 102.21 65.55 104.14 55.13 C 106.76 41.02 111.26 26.90 121.05 16.05 C 130.48 6.18 142.66 2.24 155.78 0.00 Z" fill="#fdd701" />
<path d="M 195.15 24.40 C 205.39 28.38 214.52 35.39 220.88 44.37 C 225.03 50.56 227.99 57.39 227.78 64.98 C 228.48 76.91 222.32 87.88 215.17 96.95 C 208.91 104.97 200.67 111.36 190.50 113.30 C 184.06 114.17 177.25 113.31 171.01 111.62 C 167.81 110.69 164.91 109.42 163.36 106.26 C 160.71 101.54 161.42 96.16 161.33 90.95 C 161.23 84.81 162.70 78.79 165.23 73.22 C 167.60 68.06 171.99 64.05 177.41 62.30 C 179.79 61.53 182.08 60.99 184.24 62.65 C 186.19 63.64 185.73 66.69 185.48 68.49 C 184.26 72.13 180.51 75.13 177.93 77.88 C 174.58 81.16 172.15 85.28 171.72 90.01 C 172.09 94.45 174.56 98.95 178.96 100.49 C 183.86 102.47 189.24 100.94 193.58 98.33 C 205.52 90.66 213.48 76.86 215.15 62.86 C 215.17 56.70 211.09 52.29 206.24 49.07 C 197.76 43.64 187.93 38.49 177.88 36.98 C 169.90 35.81 161.38 37.64 155.74 43.72 C 146.96 52.22 143.98 65.08 142.63 76.79 C 142.35 86.00 141.74 94.86 144.34 103.64 C 146.55 112.50 150.78 120.43 157.09 127.05 C 163.14 133.83 171.65 137.67 180.01 140.79 C 195.46 146.43 210.93 146.90 227.16 146.45 C 255.19 144.75 281.52 137.74 308.05 128.98 C 348.56 116.04 388.52 104.44 431.17 101.44 C 449.67 99.78 468.43 100.53 487.00 100.54 C 494.52 100.39 501.91 101.61 509.43 101.52 C 520.93 102.43 532.40 103.40 543.81 105.16 C 570.38 108.72 596.83 115.67 622.41 123.58 C 639.72 129.08 656.59 135.28 674.22 139.75 C 686.04 142.70 698.07 145.21 710.17 146.70 C 718.26 147.97 726.80 147.48 735.00 147.58 C 749.50 147.93 764.70 144.63 777.24 137.17 C 786.17 131.40 794.01 122.89 797.82 112.87 C 804.01 97.57 804.76 79.94 801.69 63.85 C 800.31 56.13 796.02 49.92 789.85 45.23 C 785.45 41.87 780.31 37.79 774.79 36.67 C 767.82 35.54 761.76 39.01 755.82 42.11 C 749.25 45.71 741.82 50.03 737.22 56.06 C 733.69 60.67 731.53 66.63 733.28 72.41 C 735.27 80.20 741.00 85.99 746.88 91.10 C 751.36 95.01 756.73 97.68 762.53 98.95 C 767.44 100.14 772.92 98.75 777.01 95.91 C 779.08 94.61 778.88 91.91 777.70 90.07 C 774.58 85.11 769.15 81.16 765.04 76.96 C 761.48 73.63 758.84 69.65 756.26 65.54 C 758.44 63.99 760.05 62.24 762.92 62.25 C 767.58 62.13 772.29 61.55 776.19 64.55 C 781.70 68.52 785.25 75.63 787.72 81.80 C 790.37 88.16 791.32 95.06 790.18 101.88 C 789.13 106.15 786.09 109.55 782.22 111.52 C 775.38 115.10 767.13 115.06 759.66 114.16 C 750.18 112.56 740.46 109.34 733.79 102.07 C 725.97 93.72 722.51 83.03 721.48 71.82 C 721.00 62.66 723.00 52.65 727.68 44.70 C 733.99 34.40 744.95 30.05 755.86 26.31 C 762.82 23.83 769.67 22.93 777.04 23.20 C 784.57 23.02 791.94 25.43 798.17 29.59 C 806.40 35.50 811.75 44.10 814.83 53.64 C 818.05 63.72 819.84 74.39 819.58 84.99 C 820.03 100.11 815.71 115.58 807.59 128.35 C 800.44 139.15 790.15 148.11 778.73 154.17 C 767.85 159.64 756.88 164.11 744.69 165.59 C 737.30 166.86 730.03 166.72 722.56 166.47 C 700.67 164.60 680.25 158.79 659.40 152.17 C 643.43 147.05 627.50 141.89 611.37 137.30 C 576.99 128.04 543.39 119.73 507.83 116.23 C 500.24 115.22 492.61 115.70 485.00 114.67 C 473.70 114.41 462.25 114.01 451.00 115.33 C 446.03 115.61 441.10 115.40 436.15 116.13 C 399.61 119.97 364.40 128.49 329.35 139.28 C 319.17 142.08 309.14 145.27 299.19 148.78 C 277.55 156.71 254.95 163.28 232.05 166.27 C 225.05 166.82 217.97 166.61 210.95 166.52 C 194.96 165.36 179.97 159.93 166.27 151.76 C 158.91 147.44 152.42 141.52 146.77 135.16 C 136.49 123.53 131.35 108.69 129.56 93.46 C 129.15 87.98 129.21 82.46 129.30 76.97 C 129.35 68.78 131.46 60.52 134.58 52.99 C 139.52 41.33 148.33 31.47 159.54 25.56 C 170.43 20.14 183.91 19.85 195.15 24.40 Z" fill="#7959A1" />
<path d="M 455.99 33.14 C 465.24 32.13 474.69 32.69 484.00 32.54 C 489.99 32.37 495.86 33.35 501.83 33.47 C 533.04 35.39 563.97 41.29 593.54 51.48 C 617.58 59.92 641.05 69.89 663.94 81.05 C 676.50 87.23 688.77 93.46 700.35 101.38 C 704.79 104.49 709.97 107.51 713.44 111.72 C 715.24 113.95 715.71 118.71 712.50 119.99 C 709.99 121.41 706.12 119.83 703.63 118.91 C 688.21 112.67 673.44 102.69 658.32 95.66 C 625.78 80.30 591.46 68.46 556.70 59.25 C 540.81 55.23 525.27 51.39 508.84 50.24 C 501.22 49.15 493.66 49.47 486.00 49.43 C 479.91 49.47 474.01 49.29 467.96 50.07 C 462.63 50.70 457.31 50.32 451.98 50.97 C 448.02 51.43 444.05 51.65 440.11 52.16 C 395.99 56.60 352.57 67.46 311.69 84.67 C 305.34 87.39 299.07 90.29 292.74 93.06 C 283.62 97.00 275.04 102.11 266.09 106.51 C 256.40 111.24 246.64 116.71 236.35 119.99 C 233.70 121.00 231.83 119.71 229.39 118.82 C 231.38 115.02 233.64 111.51 236.96 108.74 C 245.96 100.99 257.24 95.11 267.60 89.41 C 280.83 82.19 294.47 75.85 308.29 69.87 C 337.03 56.71 367.08 46.12 398.17 40.15 C 417.20 36.28 436.59 34.00 455.99 33.14 Z" fill="#7959A1" />
<path d="M 84.99 147.69 C 99.70 148.41 113.85 153.07 126.49 160.55 C 132.65 164.25 137.97 169.21 142.15 175.05 C 150.38 186.31 155.92 199.96 161.12 212.87 C 166.13 226.53 170.88 240.35 174.52 254.45 C 177.39 265.33 178.85 276.29 180.19 287.44 C 180.69 292.59 180.47 297.83 180.53 303.00 C 180.46 311.59 180.93 320.00 179.59 328.53 C 176.98 355.35 171.23 381.52 164.44 407.55 C 161.04 420.63 157.27 433.31 154.43 446.53 C 149.91 466.46 146.62 486.65 144.66 507.00 C 144.63 513.73 143.40 520.34 143.43 527.06 C 143.34 539.32 143.31 551.59 143.46 563.84 C 143.45 568.70 144.34 573.45 144.48 578.30 C 144.73 585.56 146.00 592.82 146.77 600.04 C 149.53 620.29 153.53 640.33 158.88 660.05 C 162.87 674.65 166.74 689.28 169.84 704.11 C 174.06 723.30 176.67 742.87 178.42 762.43 C 178.43 768.66 179.03 774.79 179.39 780.99 C 179.36 790.30 179.85 799.75 178.80 809.00 C 178.43 813.69 178.62 818.35 177.92 823.02 C 176.06 840.42 172.83 857.70 167.28 874.32 C 161.33 891.71 152.98 908.37 142.37 923.38 C 137.91 929.69 132.70 935.23 125.59 938.54 C 114.45 943.79 102.36 947.78 90.05 948.92 C 81.84 950.05 73.35 949.11 65.53 946.42 C 54.18 942.45 44.90 933.32 40.59 922.11 C 33.37 904.65 32.95 886.87 33.50 868.26 C 34.18 860.81 36.93 853.65 42.31 848.32 C 51.01 839.47 62.49 832.38 74.34 828.66 C 79.80 826.84 85.34 827.16 91.08 827.20 C 100.27 827.10 108.30 833.53 111.61 841.88 C 115.25 851.03 116.89 861.13 116.74 870.95 C 116.67 877.67 117.10 884.57 116.15 891.23 C 115.05 897.68 113.54 904.54 110.38 910.32 C 107.70 915.34 102.39 918.13 97.00 919.24 C 91.43 920.07 85.82 919.49 80.53 917.56 C 73.05 914.95 65.70 910.82 61.96 903.52 C 58.56 897.31 58.97 890.20 59.48 883.34 C 60.47 876.67 63.28 869.93 67.50 864.64 C 70.18 861.47 73.21 858.82 77.67 859.42 C 81.76 859.87 87.18 863.59 85.37 868.34 C 83.60 872.03 79.57 874.80 76.98 877.99 C 71.55 884.18 71.99 895.14 78.87 900.15 C 82.46 903.09 87.11 902.88 91.46 902.40 C 95.57 901.82 98.94 899.29 100.24 895.29 C 102.80 887.23 102.51 879.30 102.51 871.00 C 102.53 865.71 102.01 860.36 100.79 855.21 C 99.84 851.32 97.33 847.96 93.42 846.69 C 86.99 844.46 79.89 846.09 73.42 847.43 C 66.56 849.03 58.66 851.52 53.42 856.42 C 48.32 861.17 47.24 868.32 47.35 874.96 C 47.60 884.98 46.37 893.84 49.45 903.53 C 52.40 914.08 59.06 921.80 66.74 929.27 C 70.31 932.61 74.04 935.40 78.99 936.26 C 83.82 937.01 89.30 935.32 94.00 934.13 C 102.45 931.74 111.09 930.10 118.64 925.41 C 126.03 920.75 131.46 913.51 135.46 905.85 C 140.19 896.75 144.27 887.29 148.38 877.89 C 157.35 857.45 164.98 835.53 165.70 813.03 C 166.71 804.35 166.35 795.71 166.41 787.00 C 166.62 776.89 164.39 767.09 164.43 756.97 C 163.83 747.70 162.16 738.46 160.82 729.27 C 158.03 709.44 151.42 689.71 146.53 670.09 C 143.79 658.02 139.93 646.30 136.67 634.38 C 133.72 622.28 131.83 609.83 130.63 597.45 C 130.38 589.28 129.19 581.24 129.42 573.04 C 129.58 558.06 128.80 542.87 130.35 527.98 C 130.56 522.97 130.37 518.02 131.11 513.04 C 133.31 488.42 136.60 463.82 141.68 439.61 C 148.61 404.69 161.29 373.14 162.76 337.03 C 163.83 326.07 163.61 314.94 162.68 303.98 C 162.71 288.11 160.72 272.23 158.41 256.54 C 155.51 240.05 151.22 223.40 144.36 208.08 C 140.62 199.58 135.10 191.68 129.30 184.46 C 118.72 171.78 102.59 163.31 86.02 162.61 C 76.19 162.34 66.60 165.55 59.70 172.70 C 49.79 182.39 46.26 195.02 44.55 208.40 C 44.23 216.78 43.54 224.95 47.34 232.66 C 51.63 241.37 59.72 246.45 68.76 249.23 C 76.60 251.50 85.43 253.42 93.60 252.49 C 98.46 251.70 100.53 247.72 101.73 243.40 C 104.83 232.00 105.97 218.68 102.09 207.35 C 100.36 202.34 97.47 197.24 92.32 195.16 C 88.79 193.65 85.75 193.29 82.10 194.71 C 74.20 196.94 69.79 206.36 72.63 213.93 C 74.76 220.97 82.06 225.50 86.68 231.27 C 84.26 233.18 81.67 235.45 78.66 236.36 C 75.01 237.24 71.53 235.67 68.37 233.99 C 62.86 230.90 57.92 226.42 54.63 221.00 C 52.00 216.48 53.22 211.44 55.63 207.13 C 60.14 198.92 64.83 189.93 71.94 183.73 C 75.51 180.54 79.70 177.17 84.32 175.71 C 87.65 174.94 92.33 174.90 95.66 175.67 C 103.11 178.20 108.52 185.00 111.56 192.01 C 114.56 199.17 116.82 207.14 116.73 214.95 C 116.73 224.22 117.42 232.95 114.71 241.97 C 112.09 252.38 107.03 262.16 97.37 267.57 C 91.16 271.06 84.40 271.19 77.50 270.29 C 67.46 268.24 59.07 263.26 50.88 257.34 C 46.15 253.88 41.04 250.08 37.98 244.98 C 33.88 238.04 32.28 230.06 32.51 222.04 C 32.74 209.69 31.58 198.61 34.57 186.58 C 36.99 174.98 45.85 165.06 55.01 158.04 C 63.70 151.26 74.15 148.47 84.99 147.69 Z" fill="#7959A1" />
<path d="M 431.96 153.20 C 439.34 152.21 446.58 152.57 454.00 152.48 C 467.00 152.39 480.00 152.50 493.00 152.51 C 496.70 152.48 500.33 152.91 504.00 153.29 C 515.95 153.93 528.05 154.42 539.88 156.22 C 556.98 158.25 573.91 161.28 590.86 164.30 C 619.40 169.71 647.79 175.83 675.91 183.13 C 688.39 186.28 700.79 189.86 712.96 194.05 C 717.11 195.58 721.71 197.14 725.26 199.83 C 727.10 200.81 727.12 204.24 725.25 205.18 C 721.45 207.96 716.42 207.66 711.99 207.11 C 669.96 201.49 629.23 184.60 588.56 177.58 C 579.00 175.92 569.33 174.84 559.69 173.74 C 555.12 173.38 550.57 173.64 546.00 173.15 C 535.79 171.86 525.18 172.97 515.00 171.93 C 512.34 171.69 509.67 171.64 507.00 171.62 C 480.67 171.55 454.33 171.53 427.99 171.58 C 422.63 171.52 417.36 172.45 412.00 172.40 C 406.66 172.41 401.36 172.51 396.05 173.21 C 381.90 173.89 367.71 175.85 353.79 178.47 C 336.57 182.38 319.45 186.79 302.40 191.38 C 282.72 196.48 262.79 202.10 242.82 205.73 C 237.79 206.67 232.50 206.94 227.41 206.46 C 224.85 206.18 221.84 204.05 222.63 201.15 C 224.43 198.03 228.55 196.16 231.74 194.76 C 241.63 190.78 252.44 188.13 262.83 185.81 C 282.44 181.04 302.00 176.09 321.37 170.38 C 357.38 159.86 394.56 154.96 431.96 153.20 Z" fill="#7959A1" />
<path d="M 841.40 190.09 C 852.64 193.86 862.18 202.53 869.60 211.55 C 875.12 218.14 878.22 226.49 878.55 235.07 C 878.79 243.74 878.62 252.35 877.72 260.98 C 877.66 269.75 877.13 278.04 873.76 286.25 C 871.67 291.38 867.64 294.52 863.09 297.37 C 854.12 302.83 844.19 308.27 833.95 310.77 C 826.96 312.37 819.21 312.18 812.87 308.51 C 805.98 304.67 800.96 297.16 798.02 290.00 C 793.31 277.26 791.43 263.55 792.87 250.02 C 794.03 241.79 796.91 233.79 802.54 227.56 C 807.98 221.67 815.86 218.19 823.90 218.41 C 832.73 218.30 840.85 222.99 846.34 229.71 C 850.37 234.77 853.55 240.75 855.04 247.07 C 856.23 253.58 855.87 260.25 852.67 266.16 C 849.90 271.72 845.23 276.59 838.87 277.61 C 834.17 278.51 829.06 275.26 827.48 270.88 C 827.19 268.44 826.44 264.26 829.10 262.89 C 832.63 260.72 837.67 260.62 841.45 259.06 C 843.01 258.36 843.74 256.29 844.08 254.74 C 843.82 251.30 841.69 247.85 839.68 245.12 C 836.37 240.77 831.90 236.54 826.53 235.03 C 821.92 233.64 816.76 235.98 814.44 240.13 C 810.70 246.60 809.16 254.53 809.38 261.95 C 809.32 269.55 809.06 276.61 812.31 283.70 C 814.18 288.25 817.96 291.44 822.83 292.30 C 832.16 293.63 840.78 290.76 849.58 288.00 C 854.51 286.37 859.42 284.15 861.93 279.30 C 864.59 273.91 864.40 266.86 864.38 261.00 C 864.57 251.91 863.62 242.71 861.46 233.88 C 859.05 224.75 854.39 215.29 846.62 209.55 C 839.92 204.34 831.39 202.02 822.96 202.58 C 809.92 203.53 798.20 209.36 787.95 217.18 C 780.40 223.15 775.88 232.87 771.70 241.35 C 763.58 258.45 757.47 276.59 752.90 294.95 C 748.62 310.32 745.81 326.06 744.60 341.96 C 744.08 350.07 745.32 357.95 745.72 366.01 C 747.64 386.33 751.60 406.15 755.90 426.07 C 760.91 448.07 766.24 469.99 772.19 491.75 C 778.16 513.26 782.63 535.67 783.77 557.99 C 785.08 569.55 784.46 581.36 784.57 592.99 C 784.51 599.07 784.71 604.91 783.97 610.96 C 783.37 615.98 783.69 621.00 783.06 626.01 C 780.83 648.07 777.45 670.05 772.62 691.70 C 767.01 718.12 757.90 744.51 753.95 771.17 C 751.67 783.65 749.95 796.33 749.18 809.00 C 747.97 819.57 748.61 830.37 748.46 841.00 C 748.24 848.41 749.34 855.66 749.74 863.03 C 752.46 886.74 758.36 911.19 769.57 932.38 C 777.17 947.75 789.27 962.83 804.78 970.70 C 812.36 974.49 820.50 976.93 828.99 977.37 C 839.14 977.70 849.03 972.29 854.83 964.06 C 863.35 951.87 867.85 936.87 867.54 922.00 C 867.60 915.23 867.20 907.92 865.04 901.46 C 863.18 896.00 858.51 893.19 853.52 890.96 C 846.58 887.97 838.59 885.99 831.05 885.50 C 827.13 885.49 821.97 884.92 818.96 887.96 C 815.06 891.85 813.00 897.85 811.88 903.13 C 809.45 914.31 810.33 927.34 815.83 937.52 C 819.93 944.86 830.11 944.72 836.12 939.98 C 839.68 936.97 841.72 931.92 843.09 927.58 C 843.82 924.85 844.67 921.19 842.11 919.13 C 838.08 916.91 830.80 917.77 827.95 913.61 C 825.46 908.53 829.64 902.17 834.26 899.90 C 837.71 898.59 841.76 900.41 844.58 902.44 C 852.96 908.67 857.36 920.31 854.63 930.48 C 851.46 943.45 843.31 955.23 830.47 960.06 C 820.41 964.51 807.65 958.82 802.12 949.86 C 796.18 940.61 793.99 928.87 794.40 918.00 C 793.97 905.88 796.74 893.37 802.62 882.74 C 806.27 876.61 810.99 870.49 818.16 868.44 C 826.15 866.16 835.20 868.01 842.92 870.53 C 853.18 873.73 862.72 878.96 870.67 886.21 C 875.07 890.22 878.20 895.27 880.09 900.89 C 885.20 915.44 884.22 932.34 879.95 946.99 C 876.40 959.00 870.52 970.82 860.19 978.38 C 850.46 985.15 840.19 990.81 827.97 990.61 C 813.82 991.44 799.85 986.01 788.95 977.18 C 773.01 965.24 761.23 947.52 752.97 929.61 C 741.46 906.01 735.79 879.12 734.11 853.04 C 733.28 846.64 733.52 840.42 733.46 834.00 C 733.51 826.30 733.22 818.72 734.27 811.07 C 736.21 782.28 741.58 754.40 748.41 726.42 C 757.95 685.13 768.40 644.40 770.52 602.00 C 770.44 590.76 771.09 579.33 769.75 568.16 C 766.60 526.24 754.76 486.14 745.77 445.57 C 740.39 423.83 736.53 401.61 734.72 379.28 C 734.37 373.83 733.39 368.51 733.43 363.03 C 733.36 352.36 733.30 341.68 733.44 331.01 C 735.27 300.50 741.09 269.97 755.21 242.60 C 759.27 234.91 763.13 227.49 768.76 220.80 C 773.47 215.21 778.32 209.61 783.83 204.80 C 792.53 197.37 803.05 191.28 814.26 188.67 C 823.21 186.48 832.73 186.97 841.40 190.09 Z" fill="#7959A1" />
<path d="M 591.01 237.62 C 594.36 237.62 597.66 238.04 600.99 238.28 C 609.58 238.73 618.59 238.04 627.12 239.07 C 633.57 239.79 639.81 239.06 646.24 240.08 C 651.79 240.92 657.73 241.35 663.05 243.19 C 665.51 244.16 667.99 245.10 668.72 247.93 C 671.21 257.39 670.35 268.24 670.58 278.00 C 670.36 284.04 671.25 289.97 671.39 295.99 C 671.81 375.33 671.54 454.67 671.37 534.01 C 671.35 539.02 670.51 543.97 670.62 549.00 C 670.62 573.33 670.51 597.67 670.41 622.01 C 670.44 627.03 669.50 631.96 669.59 636.99 C 669.59 654.33 669.35 671.67 669.38 689.01 C 669.44 694.03 668.55 698.97 668.59 703.99 C 668.55 714.67 668.45 725.34 668.43 736.01 C 668.44 741.37 667.47 746.63 667.56 751.99 C 667.34 763.66 667.93 775.46 666.76 787.03 C 666.44 795.64 666.78 804.29 666.27 812.90 C 664.98 824.07 666.03 835.56 665.23 846.79 C 664.03 855.85 664.91 864.95 663.71 874.04 C 663.65 881.11 662.85 887.61 661.46 894.53 C 654.42 896.83 647.38 897.55 640.02 897.71 C 634.35 898.45 628.72 898.48 623.02 898.73 C 608.38 900.36 593.40 898.73 578.80 900.36 C 571.54 900.66 564.26 900.51 557.00 900.58 C 494.99 900.77 432.98 900.68 370.97 900.46 C 365.62 900.55 360.38 899.50 355.04 899.60 C 340.69 899.61 326.34 899.41 312.00 899.40 C 308.64 899.39 305.32 899.39 301.98 899.07 C 291.98 897.97 281.61 899.10 271.64 897.92 C 263.51 897.12 255.20 898.02 246.96 896.92 C 240.08 896.15 232.23 895.74 225.80 893.04 C 221.50 891.29 218.00 887.88 216.60 883.40 C 213.46 872.27 215.09 862.04 213.75 850.90 C 213.11 842.19 213.90 833.31 212.90 824.65 C 212.52 821.09 212.53 817.57 212.52 814.00 C 212.47 796.33 212.37 778.66 212.37 761.00 C 212.44 756.31 211.65 751.69 211.64 747.01 C 211.62 698.99 211.58 651.01 211.66 602.99 C 211.72 598.65 212.41 594.36 212.37 590.00 C 212.40 535.99 212.50 482.00 212.62 427.99 C 212.66 423.64 213.45 419.36 213.41 415.01 C 213.43 398.67 213.51 382.33 213.59 366.00 C 213.66 359.30 213.40 352.68 214.16 346.01 C 214.95 332.40 213.76 318.54 215.32 305.01 C 215.81 297.57 215.13 290.30 216.12 283.08 C 216.83 276.86 217.24 270.58 218.24 264.40 C 219.21 258.74 220.92 251.40 225.56 247.57 C 231.19 242.93 239.77 241.43 246.80 240.33 C 253.53 239.05 260.23 239.81 267.00 238.95 C 275.27 238.03 283.77 238.91 291.96 238.01 C 297.54 237.39 303.37 237.64 309.00 237.59 C 403.00 237.28 497.01 237.36 591.01 237.62 Z" fill="#7959A1" />
<path d="M 117.30 336.97 C 118.63 338.86 120.03 340.36 119.73 342.85 C 119.42 347.40 115.83 351.64 112.95 354.94 C 103.71 365.07 96.98 376.67 89.13 388.03 C 84.99 394.01 81.50 400.35 77.77 406.59 C 69.93 419.58 62.32 432.70 55.32 446.18 C 48.00 459.02 41.91 472.36 38.41 486.78 C 35.99 496.32 35.11 505.89 34.12 515.64 C 33.39 520.78 33.55 525.84 33.50 531.00 C 33.42 541.67 33.40 552.33 33.50 563.00 C 33.13 581.95 35.96 601.05 41.56 619.15 C 44.55 628.79 49.02 638.08 53.28 647.21 C 65.33 670.52 79.59 692.37 94.00 714.27 C 101.55 726.18 109.32 738.44 115.29 751.21 C 116.66 754.04 117.48 757.03 118.09 760.10 C 115.24 759.70 112.70 759.82 110.42 757.82 C 105.83 754.04 102.10 749.12 98.23 744.62 C 89.60 734.39 81.62 723.74 74.41 712.45 C 59.38 689.75 45.75 666.25 34.33 641.51 C 25.37 623.09 22.87 603.14 20.76 583.00 C 20.49 575.63 19.30 568.39 19.50 561.00 C 19.66 549.47 18.96 537.74 20.33 526.28 C 21.13 509.62 23.30 493.05 27.15 476.81 C 28.99 467.83 31.72 459.13 35.65 450.85 C 47.69 425.75 61.77 401.66 77.67 378.82 C 85.99 366.80 95.16 354.82 105.70 344.67 C 109.09 341.41 112.89 338.68 117.30 336.97 Z" fill="#7959A1" />
<path d="M 128.08 362.39 C 128.87 365.62 129.79 368.59 129.26 371.96 C 127.30 383.36 123.28 393.85 118.91 404.49 C 104.24 443.52 93.83 483.81 89.26 525.30 C 88.66 529.55 88.38 533.67 88.41 537.96 C 88.41 546.46 88.26 554.97 88.56 563.46 C 91.27 591.57 97.12 619.12 104.69 646.30 C 108.48 661.30 113.60 675.87 119.34 690.22 C 122.71 698.63 126.91 705.95 129.50 714.53 C 131.08 719.62 132.22 724.87 131.34 730.21 C 130.94 732.20 129.35 734.69 127.04 734.44 C 122.74 733.09 119.73 728.08 117.64 724.36 C 106.21 703.15 98.84 678.97 92.03 655.92 C 82.98 625.64 77.33 594.64 76.30 563.03 C 75.43 553.69 75.30 544.31 76.24 534.97 C 76.67 523.93 77.42 512.85 78.81 501.89 C 81.37 482.66 84.61 463.65 90.30 445.07 C 94.87 428.59 100.54 412.42 107.19 396.67 C 111.16 387.60 114.88 377.61 120.30 369.31 C 122.26 366.25 125.08 364.33 128.08 362.39 Z" fill="#7959A1" />
<path d="M 796.99 378.27 C 800.57 378.99 803.44 381.57 805.94 384.08 C 814.69 393.21 822.02 404.19 829.64 414.41 C 839.32 428.84 848.79 442.98 857.23 458.16 C 869.07 478.36 879.09 499.44 885.76 521.93 C 890.54 537.71 894.21 553.41 894.74 569.97 C 896.50 583.53 894.81 596.52 894.23 610.04 C 891.83 630.81 888.58 652.25 881.48 671.99 C 873.44 695.96 860.53 718.63 847.20 740.04 C 840.36 751.81 832.53 763.23 824.83 774.48 C 820.29 781.23 815.37 787.87 809.97 793.96 C 807.73 796.36 805.08 799.14 801.99 800.39 C 800.00 800.82 797.87 800.78 795.84 800.87 C 796.86 792.85 801.04 787.08 804.68 780.07 C 811.64 766.66 820.75 753.91 829.06 741.31 C 842.76 719.98 856.83 697.31 866.16 673.68 C 873.43 655.25 877.59 635.79 878.49 616.00 C 878.66 600.33 878.72 584.64 878.42 568.96 C 876.88 548.58 873.02 528.48 866.29 509.15 C 862.15 496.61 856.03 484.39 849.94 472.67 C 836.66 448.08 820.61 426.32 803.47 404.39 C 799.70 399.41 795.30 393.68 793.65 387.59 C 792.75 383.92 793.78 380.41 796.99 378.27 Z" fill="#7959A1" />
<path d="M 783.69 402.88 C 787.04 405.52 789.69 408.48 791.98 412.06 C 798.40 422.16 803.23 432.91 807.39 444.10 C 823.54 484.93 831.95 528.25 835.03 571.95 C 835.65 578.30 835.44 584.64 836.29 590.98 C 836.46 601.27 836.84 611.69 835.67 621.93 C 835.03 638.42 832.84 654.96 829.07 671.03 C 825.78 683.95 822.35 696.80 818.02 709.42 C 813.65 722.19 809.41 735.21 804.16 747.64 C 799.85 758.13 795.49 769.04 789.03 778.40 C 786.76 776.74 783.21 775.37 783.34 772.02 C 783.03 766.89 782.97 761.25 784.52 756.30 C 786.32 750.13 789.11 744.10 791.60 738.17 C 807.30 702.32 817.19 664.04 820.39 625.03 C 820.31 617.30 821.65 609.72 821.49 601.99 C 821.44 591.92 821.82 582.00 820.64 571.98 C 820.43 559.08 818.29 546.20 816.36 533.46 C 811.67 504.55 803.66 476.03 793.27 448.65 C 789.04 437.25 784.41 426.64 782.03 414.62 C 781.30 410.29 780.39 406.43 783.69 402.88 Z" fill="#7959A1" />
<path d="M 691.40 933.45 C 690.95 937.00 690.15 939.51 686.77 941.12 C 672.28 948.47 653.85 951.10 638.17 955.43 C 614.64 960.99 591.47 967.79 568.01 973.61 C 544.53 979.02 521.06 983.30 496.98 984.84 C 485.65 985.96 474.39 986.78 462.99 986.55 C 453.63 987.22 444.40 987.93 435.00 987.08 C 424.68 985.89 414.33 987.12 404.01 985.68 C 370.27 983.80 336.87 978.76 303.81 971.82 C 281.50 967.30 259.43 960.63 237.34 955.03 C 226.42 951.77 215.23 949.61 204.24 946.59 C 200.78 945.68 197.61 944.15 194.36 942.67 C 196.40 939.59 198.37 936.94 202.21 936.12 C 209.31 934.56 217.60 936.15 224.70 937.32 C 253.82 941.98 281.99 952.39 311.29 957.66 C 330.96 961.76 350.91 963.97 370.96 964.81 C 381.50 966.03 392.44 965.09 403.01 965.87 C 410.05 966.69 416.91 966.30 424.00 966.44 C 441.67 966.45 459.33 966.63 477.00 966.48 C 484.28 966.37 491.80 966.75 499.00 965.91 C 505.95 965.23 513.09 965.66 520.04 965.27 C 526.33 964.72 532.64 963.93 538.91 963.22 C 565.85 959.73 591.80 952.32 618.00 945.38 C 636.81 940.66 656.45 935.04 675.77 931.90 C 681.17 931.00 686.37 931.01 691.40 933.45 Z" fill="#7959A1" />
<path d="M 196.17 971.74 C 225.83 976.88 253.86 985.30 282.39 994.62 C 325.14 1007.76 367.28 1018.60 412.08 1021.90 C 419.07 1022.96 426.01 1022.21 433.00 1022.99 C 437.32 1023.46 441.68 1023.51 446.00 1023.11 C 453.67 1022.21 461.32 1023.01 468.98 1021.88 C 487.46 1020.56 505.77 1017.77 523.92 1014.04 C 542.89 1010.30 561.34 1004.95 579.68 1000.01 C 609.77 991.17 637.71 980.55 668.55 974.46 C 677.98 972.69 687.37 971.15 697.00 971.45 C 708.03 970.98 719.29 973.61 729.63 977.34 C 743.64 982.70 757.49 990.34 766.68 1002.54 C 776.44 1014.72 782.10 1029.79 783.51 1045.28 C 783.63 1053.34 784.11 1061.81 782.48 1069.73 C 781.20 1076.67 779.56 1083.83 776.82 1090.36 C 773.41 1098.21 768.01 1105.37 760.74 1110.01 C 751.34 1116.28 739.13 1117.72 728.18 1115.83 C 716.71 1113.34 705.80 1107.63 696.60 1100.41 C 692.36 1096.83 687.80 1092.79 685.07 1087.90 C 682.99 1084.20 683.37 1079.78 683.56 1075.70 C 684.33 1067.81 686.62 1059.91 689.57 1052.57 C 693.03 1044.01 697.40 1035.58 705.25 1030.27 C 713.29 1024.89 723.73 1022.82 733.29 1023.62 C 738.95 1024.31 745.54 1026.13 749.58 1030.42 C 753.44 1034.36 754.65 1039.72 754.59 1045.09 C 754.90 1052.35 752.51 1059.64 748.74 1065.77 C 745.63 1070.56 740.54 1075.40 734.73 1076.43 C 730.69 1076.95 726.51 1076.42 722.43 1076.50 C 722.77 1073.84 723.48 1071.30 725.17 1069.16 C 730.11 1062.61 737.18 1056.56 740.99 1049.31 C 741.73 1047.74 742.89 1045.42 742.12 1043.69 C 740.48 1040.56 736.31 1038.96 732.98 1038.66 C 728.18 1038.44 723.18 1040.17 718.90 1042.23 C 712.29 1045.66 705.85 1050.20 702.14 1056.83 C 699.65 1061.30 698.10 1066.75 698.75 1071.88 C 700.04 1080.96 706.19 1089.13 714.05 1093.68 C 718.23 1096.15 722.55 1098.64 727.12 1100.31 C 732.55 1102.28 738.64 1102.09 743.80 1099.41 C 748.20 1097.15 752.51 1094.43 756.22 1091.16 C 760.86 1087.08 762.97 1081.14 764.37 1075.30 C 765.76 1068.88 766.48 1062.28 766.58 1055.72 C 766.69 1048.28 766.84 1041.06 765.18 1033.75 C 763.05 1023.91 758.93 1013.76 751.13 1007.06 C 739.48 996.92 724.87 992.80 709.75 991.47 C 700.82 991.28 691.61 991.30 682.68 991.53 C 650.55 994.67 620.68 1003.17 590.14 1013.12 C 549.55 1025.37 507.37 1035.99 464.96 1038.82 C 454.39 1039.96 443.63 1039.42 433.00 1039.56 C 417.32 1039.84 401.45 1038.03 385.89 1036.12 C 364.35 1033.13 342.98 1028.64 322.09 1022.60 C 307.52 1019.04 293.19 1014.67 278.94 1010.00 C 251.17 1001.10 223.44 994.11 194.30 991.53 C 186.23 991.26 178.14 991.35 170.07 991.39 C 164.15 991.37 158.52 992.44 152.76 993.70 C 143.78 995.83 135.35 999.15 128.39 1005.38 C 118.19 1013.82 112.01 1026.19 109.27 1038.98 C 105.61 1054.93 106.83 1072.06 114.28 1086.78 C 116.24 1090.64 118.92 1093.99 122.85 1095.97 C 126.94 1098.28 131.38 1098.81 136.00 1098.69 C 143.92 1098.93 151.15 1096.48 158.60 1093.99 C 164.17 1091.96 170.48 1089.07 174.42 1084.50 C 177.94 1080.26 177.63 1075.14 177.27 1069.96 C 176.31 1060.26 171.84 1051.06 164.65 1044.44 C 159.41 1039.63 152.18 1036.62 145.04 1036.71 C 142.56 1036.92 139.28 1037.48 137.53 1039.42 C 134.60 1043.21 134.13 1048.09 136.09 1052.45 C 138.62 1058.93 144.33 1061.54 148.82 1066.24 C 151.14 1068.58 150.66 1071.51 151.17 1074.56 C 148.22 1075.78 145.54 1077.45 142.25 1076.37 C 137.76 1074.48 134.16 1070.10 131.63 1066.06 C 126.21 1057.14 123.95 1045.72 126.59 1035.54 C 127.49 1032.11 129.12 1029.05 132.47 1027.49 C 138.62 1024.58 146.38 1024.27 153.07 1024.53 C 158.80 1024.72 164.14 1026.89 168.75 1030.24 C 177.14 1036.29 183.77 1045.20 188.76 1054.17 C 194.54 1064.97 195.39 1078.09 188.71 1088.71 C 182.33 1098.48 171.54 1105.76 161.09 1110.57 C 151.58 1114.95 141.38 1117.00 131.00 1114.84 C 120.17 1112.34 110.63 1105.79 104.45 1096.55 C 96.92 1085.16 93.98 1070.46 93.54 1057.00 C 93.51 1045.07 94.99 1032.59 99.44 1021.45 C 103.32 1011.14 109.90 1002.36 117.52 994.52 C 128.53 983.73 142.94 976.13 158.04 973.05 C 170.69 970.36 183.38 969.36 196.17 971.74 Z" fill="#7959A1" />
<path d="M 208.24 1019.83 C 221.46 1025.53 234.46 1032.75 247.07 1039.52 C 271.95 1051.84 298.56 1061.63 324.89 1070.30 C 332.35 1072.47 339.86 1074.48 347.29 1076.74 C 370.65 1083.45 395.58 1089.07 420.00 1088.50 C 427.98 1088.41 436.14 1088.78 444.00 1087.86 C 480.26 1086.62 516.50 1080.03 551.47 1070.48 C 562.39 1067.24 573.41 1064.54 584.10 1060.54 C 601.98 1054.41 619.12 1046.59 635.57 1037.27 C 645.00 1031.76 654.30 1024.96 664.61 1020.16 C 668.60 1018.26 673.70 1017.47 677.96 1018.74 C 680.31 1020.54 680.33 1025.04 678.22 1027.05 C 674.08 1031.69 668.50 1035.27 663.26 1038.56 C 648.70 1047.50 633.46 1055.09 618.03 1062.40 C 595.68 1072.59 573.12 1081.98 549.60 1089.16 C 541.11 1091.65 532.37 1093.48 523.74 1095.42 C 502.47 1100.21 481.47 1102.42 459.90 1104.98 C 455.27 1105.64 450.62 1105.47 445.97 1106.01 C 436.63 1106.73 427.39 1107.74 418.00 1107.42 C 408.00 1107.76 398.13 1106.88 388.36 1104.70 C 369.29 1100.46 350.43 1095.20 331.86 1089.14 C 321.93 1086.12 312.35 1082.20 302.56 1078.78 C 277.09 1069.32 252.07 1059.02 227.94 1046.50 C 219.89 1042.39 212.23 1037.53 204.81 1032.40 C 199.75 1028.57 195.09 1024.83 195.09 1017.89 C 199.79 1016.82 203.93 1017.97 208.24 1019.83 Z" fill="#7959A1" />
</svg>