<?xml version="1.0" standalone="no"?>
<!DOCTYPE svg PUBLIC "-//W3C//DTD SVG 20010904//EN"
 "http://www.w3.org/TR/2001/REC-SVG-20010904/DTD/svg10.dtd">
<svg version="1.0" xmlns="http://www.w3.org/2000/svg"
 width="500" height="500" viewBox="0 0 840.000000 859.000000"
 preserveAspectRatio="xMidYMid meet">

<g transform="translate(0.000000,859.000000) scale(0.100000,-0.100000)"
fill="#fff" stroke="#fff">
<path d="M4996 8506 c-58 -84 -156 -172 -231 -207 -60 -29 -73 -31 -143 -27
-110 6 -195 53 -325 177 l-98 94 -50 -56 c-67 -76 -195 -170 -266 -197 -158
-59 -328 14 -463 199 -24 33 -46 58 -48 56 -2 -2 -6 -173 -7 -379 l-4 -376
840 0 839 0 0 385 c0 212 -2 385 -3 385 -2 0 -20 -24 -41 -54z"/>
<path d="M1640 8000 c0 -21 59 -126 93 -165 44 -52 120 -93 195 -106 57 -10
58 -11 70 -52 31 -115 117 -185 238 -195 l62 -5 22 -48 c65 -138 197 -178 555
-166 l170 6 71 -45 c149 -93 271 -124 476 -123 73 0 153 4 178 8 l45 8 -40 17
c-354 150 -568 384 -701 770 l-36 106 -699 0 c-472 0 -699 -3 -699 -10z"/>
<path d="M5336 7923 c-118 -368 -359 -645 -668 -770 -37 -16 -68 -31 -68 -35
0 -12 152 -21 279 -15 177 7 294 44 420 130 l44 30 251 2 c200 1 263 5 310 19
93 26 136 62 182 149 23 45 26 47 67 47 106 0 208 70 242 165 9 28 19 55 21
62 1 7 20 15 41 18 143 24 237 102 298 248 l15 37 -703 0 -703 0 -28 -87z"/>
<path d="M4167 7199 c-128 -232 -277 -525 -273 -536 3 -7 12 -13 19 -13 28 0
95 -77 118 -136 21 -53 23 -78 27 -266 l4 -207 -24 -5 c-12 -3 -45 -8 -73 -11
-202 -27 -455 -154 -629 -316 -231 -216 -386 -553 -386 -840 l0 -69 -225 0
c-125 0 -247 5 -277 11 -95 20 -177 78 -201 142 -3 9 -10 17 -14 17 -10 0
-574 -297 -585 -308 -5 -5 126 -79 289 -165 l298 -156 14 27 c23 46 71 90 125
114 49 22 63 23 331 26 l281 3 17 -65 c24 -90 22 -125 -14 -224 -19 -55 -33
-115 -36 -164 -5 -70 -3 -80 20 -121 54 -92 264 -266 381 -317 58 -24 133 -26
165 -4 60 42 127 208 156 386 34 210 15 262 -127 352 -61 38 -77 57 -103 119
l-15 37 315 0 315 0 0 -373 0 -373 -30 -18 c-55 -32 -178 -135 -252 -210 -142
-144 -249 -321 -304 -501 -26 -84 -28 -102 -28 -270 0 -168 2 -186 27 -270 37
-121 121 -291 199 -399 79 -113 224 -273 317 -351 l71 -60 -3 -425 c-3 -386
-5 -430 -21 -474 -18 -47 -88 -128 -131 -152 -18 -10 -10 -28 134 -300 84
-159 156 -292 160 -296 3 -4 41 59 84 140 42 81 113 215 157 299 l80 151 -38
19 c-40 21 -98 90 -108 127 -4 17 9 43 51 101 107 149 153 274 162 436 11 194
-48 377 -183 571 l-54 77 0 735 0 735 43 29 c23 16 121 80 217 142 217 139
310 212 425 331 141 146 264 349 311 512 l19 67 291 0 c262 0 296 -2 347 -19
87 -30 125 -65 163 -149 3 -6 594 310 594 317 0 7 -575 311 -589 311 -4 0 -14
-14 -21 -30 -18 -43 -83 -96 -144 -117 -44 -16 -88 -18 -326 -18 l-275 0 -2
60 c-18 436 -273 838 -661 1038 -98 51 -233 99 -330 118 l-63 12 3 221 c3 206
5 224 26 271 27 58 72 109 114 126 16 6 27 15 26 18 -6 13 -252 477 -284 535
l-32 58 -35 -63z m-107 -2039 l0 -360 -331 0 -332 0 6 58 c12 129 81 283 177
397 95 113 252 213 390 249 100 27 90 64 90 -344z m363 331 c287 -99 487 -343
531 -648 l6 -43 -305 0 -305 0 0 355 c0 195 4 355 8 355 5 0 34 -9 65 -19z
m497 -988 c0 -4 -20 -48 -44 -98 -93 -191 -217 -314 -443 -438 l-83 -46 0 295
0 294 285 0 c157 0 285 -3 285 -7z m-860 -1790 c-1 -483 5 -463 -76 -300 -82
169 -96 344 -40 512 24 70 99 215 111 215 3 0 5 -192 5 -427z"/>
</g>
</svg>
