<?xml version="1.0" encoding="UTF-8" standalone="no"?>
<!DOCTYPE svg PUBLIC "-//W3C//DTD SVG 1.1//EN" "http://www.w3.org/Graphics/SVG/1.1/DTD/svg11.dtd">
<svg xmlns="http://www.w3.org/2000/svg" version="1.1" viewBox="0 0 1023 347" width="1023.0pt" height="347.0pt">
<path d="M 2.34 0.00 L 344.72 0.00 C 347.43 13.50 350.70 26.63 357.08 38.94 C 361.91 48.44 368.70 57.45 377.83 63.17 C 382.58 66.17 387.81 67.64 393.27 68.76 C 407.99 71.85 422.60 75.95 437.39 78.61 C 445.06 80.03 453.12 80.69 460.89 79.85 C 466.51 79.12 471.76 76.28 473.63 70.64 C 475.29 65.10 475.37 59.09 476.41 53.39 C 478.49 41.07 480.53 28.63 483.82 16.56 C 487.19 27.66 489.19 39.17 492.22 50.38 C 498.82 49.11 505.24 47.78 512.01 47.92 C 518.47 47.85 524.66 49.08 530.90 50.61 C 533.94 39.10 536.11 27.34 539.45 15.92 C 543.06 32.06 546.35 48.38 548.29 64.81 C 548.91 69.33 549.78 73.45 553.59 76.40 C 559.42 81.18 568.97 80.26 576.03 79.95 C 591.09 78.41 606.03 74.09 620.78 70.78 C 628.53 68.82 637.09 67.96 643.97 63.97 C 653.31 58.68 659.89 50.26 665.00 41.01 C 671.95 28.12 675.75 14.34 678.31 0.00 L 1020.79 0.00 C 1011.32 3.87 1001.63 7.12 992.27 11.27 C 958.71 25.74 925.71 44.77 899.35 70.35 C 885.28 84.50 873.31 100.24 865.94 118.94 C 860.08 133.55 857.70 149.33 858.79 165.03 C 859.37 177.56 862.60 189.34 866.66 201.14 C 850.82 199.28 834.95 197.81 819.01 197.02 C 811.96 197.04 804.93 196.65 797.89 196.32 C 784.20 195.60 770.65 196.98 756.97 197.05 C 714.79 199.43 672.35 205.78 632.62 220.62 C 603.39 231.57 576.44 247.09 554.24 269.24 C 539.04 284.96 526.75 303.36 518.74 323.74 C 515.84 330.76 513.88 338.03 511.49 345.22 C 505.55 322.90 495.73 301.79 481.40 283.60 C 468.98 267.55 453.64 254.34 436.62 243.37 C 404.37 222.73 366.37 210.80 328.89 204.10 C 308.11 200.34 287.12 198.25 266.05 197.05 C 255.35 197.08 244.70 196.02 234.00 196.14 C 224.31 196.11 214.67 197.07 204.97 197.01 C 188.83 197.68 172.80 199.32 156.75 201.06 C 158.42 194.94 160.49 189.07 161.86 182.86 C 163.56 175.41 164.37 167.66 164.79 160.04 C 165.00 141.13 160.23 122.47 151.10 105.92 C 141.25 87.88 126.91 71.93 111.08 58.91 C 85.51 37.60 55.13 21.18 24.43 8.57 C 17.42 5.64 10.20 3.25 3.19 0.33 L 2.34 0.00 Z" fill="#1f1a17" />
</svg>
