<?xml version="1.0" encoding="UTF-8" standalone="no"?>
<!DOCTYPE svg PUBLIC "-//W3C//DTD SVG 1.1//EN" "http://www.w3.org/Graphics/SVG/1.1/DTD/svg11.dtd">
<svg xmlns="http://www.w3.org/2000/svg" version="1.1" viewBox="0 0 225 225" width="225.0pt" height="225.0pt">
<path d="M 113.79 1.99 C 131.07 1.51 148.74 6.89 163.76 15.23 C 187.92 28.65 207.69 50.90 217.01 77.02 C 223.64 95.37 224.84 115.32 220.34 134.31 C 217.08 149.01 210.48 162.22 202.61 174.94 C 209.24 181.94 216.24 188.56 222.80 195.63 C 213.61 204.70 204.41 213.76 195.17 222.79 C 188.32 216.19 181.77 209.29 174.93 202.68 C 166.65 207.14 158.63 211.50 149.80 214.81 C 137.09 219.70 123.67 222.60 110.05 223.03 C 91.85 223.52 74.00 219.21 57.63 211.38 C 50.59 208.09 44.17 203.95 37.52 199.98 C 35.78 206.63 35.87 214.43 29.98 218.97 C 22.90 225.09 11.90 224.34 5.89 217.11 C -0.27 210.00 0.94 199.00 7.91 192.91 C 12.58 188.74 18.22 189.02 24.04 188.12 C 18.58 181.64 13.45 175.00 8.71 167.97 C 14.38 162.08 20.15 156.33 26.06 150.68 C 30.92 155.29 35.79 159.82 41.15 163.85 C 56.54 175.38 74.67 183.07 93.85 185.09 C 112.10 187.18 130.79 183.55 146.98 174.87 C 122.96 150.53 98.68 126.45 74.60 102.16 C 67.50 108.82 60.88 115.94 53.80 122.62 C 43.28 112.52 33.04 102.12 22.73 91.81 C 40.72 73.39 59.11 55.36 77.25 37.08 C 82.69 38.28 87.97 39.24 93.57 38.47 C 100.93 37.59 106.87 34.06 112.82 29.90 C 118.48 35.46 124.18 40.97 129.60 46.77 C 120.57 56.08 111.31 65.17 102.17 74.37 C 122.89 95.47 143.93 116.25 164.69 137.31 C 167.97 140.65 171.33 143.92 174.74 147.14 C 178.55 139.57 181.67 131.74 183.39 123.43 C 186.98 106.83 185.81 89.51 180.60 73.39 C 172.32 47.55 154.22 25.02 131.11 10.90 C 125.55 7.46 119.65 4.86 113.79 1.99 Z" fill="#000000" />
</svg>